<?xml version="1.0" encoding="UTF-8"?>
<!DOCTYPE svg PUBLIC "-//W3C//DTD SVG 1.1//EN" "http://www.w3.org/Graphics/SVG/1.1/DTD/svg11.dtd">
<!-- Creator: CorelDRAW 2018 -->
<svg xmlns="http://www.w3.org/2000/svg" xml:space="preserve" width="2.96837in" height="3.07894in" version="1.1" style="shape-rendering:geometricPrecision; text-rendering:geometricPrecision; image-rendering:optimizeQuality; fill-rule:evenodd; clip-rule:evenodd"
viewBox="0 0 13801.29 14315.42"
 xmlns:xlink="http://www.w3.org/1999/xlink">
 <defs>
  <style type="text/css">
   <![CDATA[
    .fil7 {fill:#257DAF}
    .fil10 {fill:#2586BD}
    .fil8 {fill:#2588C1}
    .fil4 {fill:#27ABEB}
    .fil1 {fill:#2A84B8}
    .fil2 {fill:#39AEE4}
    .fil9 {fill:#3ABEE5}
    .fil3 {fill:#3DB1EE}
    .fil0 {fill:#3DB6EB}
    .fil5 {fill:#4ABFEB}
    .fil17 {fill:#5DD0FD}
    .fil6 {fill:#62C6E8}
    .fil11 {fill:#68C9F3}
    .fil18 {fill:#79DAFB}
    .fil19 {fill:#7CDCFF}
    .fil16 {fill:#8ADAFB}
    .fil15 {fill:#8DE4FF}
    .fil13 {fill:#99E2F5}
    .fil20 {fill:#ACEFFF}
    .fil21 {fill:#C0FFFF}
    .fil12 {fill:#C4F0FD}
    .fil14 {fill:#DAFDF7}
    .fil22 {fill:#2588C1;fill-rule:nonzero}
   ]]>
  </style>
   <mask id="id0">
  <linearGradient id="id1" gradientUnits="userSpaceOnUse" x1="7656.62" y1="4975.56" x2="6838.95" y2="4985.11">
   <stop offset="0" style="stop-opacity:1; stop-color:white"/>
   <stop offset="0.309804" style="stop-opacity:0.501961; stop-color:white"/>
   <stop offset="1" style="stop-opacity:0; stop-color:white"/>
  </linearGradient>
    <rect style="fill:url(#id1)" x="6924.81" y="4375.19" width="745.85" height="1332.33"/>
   </mask>
   <mask id="id2">
  <linearGradient id="id3" gradientUnits="userSpaceOnUse" x1="6915.83" y1="8745.3" x2="8428.07" y2="6686.69">
   <stop offset="0" style="stop-opacity:0.301961; stop-color:white"/>
   <stop offset="1" style="stop-opacity:0; stop-color:white"/>
  </linearGradient>
    <rect style="fill:url(#id3)" x="6897.43" y="6686.69" width="1560.02" height="2089.88"/>
   </mask>
   <mask id="id4">
  <linearGradient id="id5" gradientUnits="userSpaceOnUse" x1="4512.75" y1="2644.38" x2="3208.44" y2="5571.15">
   <stop offset="0" style="stop-opacity:1; stop-color:white"/>
   <stop offset="1" style="stop-opacity:0; stop-color:white"/>
  </linearGradient>
    <rect style="fill:url(#id5)" x="3165.84" y="2388.03" width="761.3" height="3446.07"/>
   </mask>
   <mask id="id6">
  <linearGradient id="id7" gradientUnits="userSpaceOnUse" x1="8590.82" y1="1805.44" x2="9971.64" y2="4604.93">
   <stop offset="0" style="stop-opacity:0.341176; stop-color:white"/>
   <stop offset="0.4" style="stop-opacity:0.827451; stop-color:white"/>
   <stop offset="1" style="stop-opacity:0; stop-color:white"/>
  </linearGradient>
    <rect style="fill:url(#id7)" x="7863.53" y="2172.32" width="2824.16" height="2079.42"/>
   </mask>
   <mask id="id8">
  <linearGradient id="id9" gradientUnits="userSpaceOnUse" x1="3705.71" y1="2396.91" x2="-340.92" y2="4313.98">
   <stop offset="0" style="stop-opacity:1; stop-color:white"/>
   <stop offset="0.309804" style="stop-opacity:0.501961; stop-color:white"/>
   <stop offset="1" style="stop-opacity:0; stop-color:white"/>
  </linearGradient>
    <rect style="fill:url(#id9)" y="1677.28" width="3364.8" height="3356.32"/>
   </mask>
   <mask id="id10">
  <linearGradient id="id11" gradientUnits="userSpaceOnUse" x1="3560.09" y1="9282.69" x2="953.43" y2="6107.59">
   <stop offset="0" style="stop-opacity:1; stop-color:white"/>
   <stop offset="1" style="stop-opacity:0; stop-color:white"/>
  </linearGradient>
    <rect style="fill:url(#id11)" x="953.43" y="6107.59" width="2748.18" height="3223.28"/>
   </mask>
   <mask id="id12">
  <linearGradient id="id13" gradientUnits="userSpaceOnUse" x1="12255.56" y1="7841.42" x2="11092.68" y2="7306.33">
   <stop offset="0" style="stop-opacity:1; stop-color:white"/>
   <stop offset="0.580392" style="stop-opacity:0.501961; stop-color:white"/>
   <stop offset="1" style="stop-opacity:0; stop-color:white"/>
  </linearGradient>
    <rect style="fill:url(#id13)" x="10242.79" y="5942.32" width="2890.13" height="3211.03"/>
   </mask>
   <mask id="id14">
  <linearGradient id="id15" gradientUnits="userSpaceOnUse" x1="11993.63" y1="4932.45" x2="11024.7" y2="796.59">
   <stop offset="0" style="stop-opacity:0.529412; stop-color:white"/>
   <stop offset="1" style="stop-opacity:0.0901961; stop-color:white"/>
  </linearGradient>
    <rect style="fill:url(#id15)" x="9761.24" y="925.55" width="3364.78" height="3695.37"/>
   </mask>
   <mask id="id16">
  <linearGradient id="id17" gradientUnits="userSpaceOnUse" x1="6352.43" y1="2848.24" x2="4405.13" y2="4177.73">
   <stop offset="0" style="stop-opacity:0.470588; stop-color:white"/>
   <stop offset="1" style="stop-opacity:0; stop-color:white"/>
  </linearGradient>
    <rect style="fill:url(#id17)" x="4409.37" y="2019.97" width="1377.58" height="3033.51"/>
   </mask>
   <mask id="id18">
  <linearGradient id="id19" gradientUnits="userSpaceOnUse" x1="7802.56" y1="7180.77" x2="9705.44" y2="3872.71">
   <stop offset="0" style="stop-opacity:1; stop-color:white"/>
   <stop offset="0.431373" style="stop-opacity:0.501961; stop-color:white"/>
   <stop offset="1" style="stop-opacity:0; stop-color:white"/>
  </linearGradient>
    <rect style="fill:url(#id19)" x="8248.76" y="3034.87" width="1973.38" height="4949.91"/>
   </mask>
   <mask id="id20">
  <linearGradient id="id21" gradientUnits="userSpaceOnUse" x1="3428.74" y1="7389.21" x2="7658.81" y2="6729.37">
   <stop offset="0" style="stop-opacity:0.321569; stop-color:white"/>
   <stop offset="0.470588" style="stop-opacity:0.839216; stop-color:white"/>
   <stop offset="1" style="stop-opacity:0; stop-color:white"/>
  </linearGradient>
    <rect style="fill:url(#id21)" x="3374.33" y="6729.37" width="4284.47" height="1784.42"/>
   </mask>
 </defs>
 <g id="Layer_x0020_1">
  <metadata id="CorelCorpID_0Corel-Layer"/>
  <path class="fil0" d="M6687.22 11.22c-3613.03,-256.71 -5253.65,3966.57 -6687.22,5022.38 3185.98,-349.94 2550.45,-4675.19 6687.22,-5022.38z"/>
  <path class="fil1" d="M7114.07 11.22c3613.03,-256.71 5253.65,3966.57 6687.22,5022.38 -3185.98,-349.94 -2550.45,-4675.19 -6687.22,-5022.38z"/>
  <path class="fil2" d="M7114.07 10470.7c3613.03,256.71 5253.65,-3966.57 6687.22,-5022.38 -3185.98,349.94 -2550.45,4675.19 -6687.22,5022.38z"/>
  <path class="fil3" d="M6687.22 10470.7c-3613.03,256.71 -5253.65,-3966.57 -6687.22,-5022.38 3185.98,349.94 2550.45,4675.19 6687.22,5022.38z"/>
  <path class="fil4" d="M5682.9 7436.47c-3524.4,-2414.39 -2056.08,-5936.02 992.86,-6606.11 -3741.29,-296.54 -5778.1,5612.11 -992.86,6606.11z"/>
  <path class="fil5" d="M5557.23 6337.46c-1423.01,-2248.58 -513.82,-4134.23 2090.02,-4993.53 -2769.59,-119.29 -4865.75,2815.41 -2090.02,4993.53z"/>
  <path class="fil6" d="M8224.56 3025.84c2937.34,3102.05 547.67,5092.76 -975.76,6268.56 2481.16,-395.04 5183.12,-4115.39 975.76,-6268.56z"/>
  <path class="fil7" d="M5602.04 3163.86c3862.03,-1826.3 4983.72,1070.24 5627.14,2883.89 396.59,-2480.91 -2271.7,-6212.4 -5627.14,-2883.89z"/>
  <path class="fil8" d="M8429.04 5334.44c-43.4,2849.18 -1749.99,3206.71 -2867.36,3729.45 2895.51,254.91 3636.09,-1947.21 2867.36,-3729.45z"/>
  <path class="fil9" d="M7658.81 6729.37c-1312.13,2129.87 -4052.99,1447.37 -5069.41,-1103.88 695.92,2781.18 3366.26,4321.45 5069.41,1103.88z"/>
  <path class="fil10" d="M6924.81 3675.82c710.16,0 1285.85,575.69 1285.85,1285.85 0,710.16 -575.69,1285.85 -1285.85,1285.85 -710.16,0 -1285.85,-575.69 -1285.85,-1285.85 0,-710.16 575.69,-1285.85 1285.85,-1285.85zm0 367.54c507.18,0 918.3,411.13 918.3,918.3 0,507.16 -411.13,918.29 -918.3,918.29 -507.16,0 -918.29,-411.13 -918.29,-918.29 0,-507.18 411.13,-918.3 918.29,-918.3z"/>
  <path class="fil11" d="M6924.81 4215.81c411.92,0 745.85,333.94 745.85,745.85 0,411.92 -333.94,745.85 -745.85,745.85 -411.92,0 -745.85,-333.94 -745.85,-745.85 0,-411.92 333.94,-745.85 745.85,-745.85z"/>
  <path class="fil12" style="mask:url(#id0)" d="M7385.68 4375.19c173.55,136.55 284.99,348.51 284.99,586.47 0,411.92 -333.94,745.85 -745.85,745.85 679.22,-324.73 -605.01,-1198.55 460.86,-1332.33z"/>
  <path class="fil13" style="mask:url(#id2)" d="M8428.07 6686.69c-392.11,1270.29 -724.73,1585.92 -1530.64,2073.07 779.04,148.36 1740.98,-697.49 1530.64,-2073.07z"/>
  <path class="fil14" style="mask:url(#id4)" d="M3798.46 5834.1c-566.79,-885.87 -467.01,-2295.92 128.68,-3446.07 -694.32,418.14 -1233.75,2690.02 -128.68,3446.07z"/>
  <path class="fil15" style="mask:url(#id6)" d="M7863.53 2187.15c1612.7,426.85 2157.97,1011.24 2824.16,2064.6 -122.46,-824.13 -1259.64,-2239.59 -2824.16,-2064.6z"/>
  <path class="fil16" style="mask:url(#id8)" d="M3364.8 1677.28c-1491.72,571.48 -1909.52,2164.67 -3364.8,3356.32 2415.08,-369.91 2228.55,-2603.84 3364.8,-3356.32z"/>
  <path class="fil17" style="mask:url(#id10)" d="M3701.61 9330.87c-566.79,-885.87 -1464.72,-2131.24 -2748.18,-3223.28 533.08,537.98 1643.11,2467.23 2748.18,3223.28z"/>
  <path class="fil18" style="mask:url(#id12)" d="M10242.79 9153.35c1588.56,-1050.96 2241.17,-2387.7 2890.13,-3211.03 -1791.14,495.24 -1649.59,2117.99 -2890.13,3211.03z"/>
  <path class="fil19" style="mask:url(#id14)" d="M9761.24 925.55c2034.17,1351.23 2495.02,2564.32 3364.78,3695.37 -2101.1,-1473.57 -806.88,-1081.55 -3364.78,-3695.37z"/>
  <path class="fil14" style="mask:url(#id16)" d="M4982.28 5053.48c-566.79,-885.87 -195.35,-2173.07 804.67,-3033.51 -912.26,42.8 -2103.88,1897.14 -804.67,3033.51z"/>
  <path class="fil20" style="mask:url(#id18)" d="M8248.76 3034.87c2746.25,2645.76 1348.36,4325.7 929.69,4949.91 624.05,-180.98 2423.89,-3051.25 -929.69,-4949.91z"/>
  <path class="fil21" style="mask:url(#id20)" d="M7658.81 6729.37c-1312.13,2129.87 -3364.92,1352.86 -4284.47,612.96 841.2,1027.95 2687.86,2275.27 4284.47,-612.96z"/>
  <g id="_830236616">
   <path class="fil22" d="M887.42 11988.8l1106.55 1394.21 0 -966.45c0,-136.37 -19.22,-228.02 -58.19,-276.13 -53.1,-65.07 -142.34,-96.19 -267.18,-93.92l0 -57.72 742.23 0 0 57.72c-94.89,12.45 -158.72,28.28 -191.49,47.52 -32.2,19.81 -57.61,51.49 -76.26,95.63 -18.09,44.15 -27.11,119.97 -27.11,226.91l0 1874.06 -55.92 0 -1516.66 -1876.33 0 1434.98c0,130.15 29.38,218.41 88.69,264.25 59.31,45.84 127.66,68.46 203.92,68.46l53.08 0 0 57.72 -799.83 0 0 -57.72c124.27,-1.13 210.12,-26.6 259.29,-76.95 48.56,-50.36 72.85,-135.24 72.85,-255.76l0 -1591.71 -46.88 -58.28c-47.45,-61.12 -89.24,-101.28 -125.97,-120.52 -36.13,-19.24 -88.67,-30 -157.02,-32.25l0 -57.72 795.9 0z"/>
   <path class="fil22" d="M3209.33 12725.65l0 649.86 34.89 0c111.7,0 192.49,-31.69 242.82,-95.08 49.88,-63.37 82.1,-156.86 95.79,-280.4l50.34 0 0 835.2 -50.34 0c-10.16,-91.07 -32.22,-165.68 -65.33,-223.45 -33.57,-58.17 -71.96,-97.07 -116.13,-117.13 -44.13,-20.06 -108.15,-30.09 -192.04,-30.09l0 448.49c0,87.86 3.99,141.2 12.37,160.86 7.94,19.66 23.39,35.69 45.91,48.14 22.52,12.43 58.72,18.85 108.6,18.85l105.07 0c163.77,0 295.33,-34.5 394.23,-103.09 98.88,-68.61 169.96,-173.31 212.78,-314.52l48.12 0 -79.02 506.66 -1515.56 0 0 -40.91 57.84 0c50.76,0 91.82,-8.44 122.72,-24.88 22.52,-11.24 39.72,-30.09 51.66,-56.96 9.26,-18.85 14.11,-68.59 14.11,-149.22l0 -1051.84c0,-72.6 -2.2,-117.13 -6.61,-133.97 -8.4,-27.68 -24.29,-48.95 -47.68,-63.79 -32.67,-22.06 -77.25,-33.3 -134.19,-33.3l-57.84 0 0 -40.91 1467.43 0 0 471.75 -50.32 0c-24.71,-115.52 -60.02,-198.17 -105.07,-248.31 -45.03,-50.16 -108.6,-87.06 -191.16,-110.73 -48.12,-14.04 -138.17,-21.25 -270.62,-21.25l-182.77 0z"/>
   <path class="fil22" d="M5301.59 13263.43l409.41 653.07c68.09,110.32 116.4,177.32 145.58,200.99 28.81,23.67 62.88,37.71 102.54,42.52l0 40.91 -726.76 0 0 -40.91c58.01,-4.81 95.06,-14.44 111.9,-28.48 16.84,-14.44 25.08,-31.7 25.08,-52.55 0,-14.04 -2.25,-26.87 -7.49,-37.71 -10.1,-24.07 -35.93,-68.2 -76.72,-133.59l-216.31 -341.77 -226.78 294.84c-68.11,91.07 -101.79,152.85 -101.79,185.34 0,22.86 8.6,44.11 26.19,64.18 17.59,19.66 43.42,34.1 77.85,42.52 15.34,4.81 46.77,7.23 94.29,7.23l0 40.91 -571.06 0 0 -40.91c65.11,-10.43 116.02,-29.29 153.43,-56.96 49.02,-36.52 117.52,-112.32 205.09,-228.26l295.26 -383.91 -378.34 -598.52c-62.13,-99.08 -97.68,-154.44 -106.28,-165.28 -19.84,-26.47 -39.28,-44.92 -58.37,-56.16 -18.73,-10.84 -45.29,-19.26 -78.97,-24.88l0 -40.91 737.6 0 0 40.91 -37.42 0c-42.3,0 -72.23,7.23 -88.71,22.08 -16.82,14.44 -25.44,32.89 -25.44,55.35 0,17.24 2.62,32.49 7.85,44.94l75.6 123.54 185.63 296.06 154.18 -200.59c80.43,-106.7 120.87,-181.31 120.87,-223.83 0,-21.67 -5.99,-41.33 -17.22,-59.38 -11.22,-18.05 -27.7,-32.49 -48.65,-42.93 -21.33,-10.03 -54.26,-15.25 -98.77,-15.25l0 -40.91 547.1 0 0 40.91c-43.03,0.81 -77.83,6.43 -104.39,17.26 -26.19,10.84 -54.27,30.88 -84.2,60.17 -19.09,18.85 -66.63,78.22 -142.58,177.3l-279.19 362.66z"/>
   <path class="fil22" d="M8275.08 11988.8l0 607.71 -64.27 0c-39.69,-140.33 -83.16,-241.04 -131.05,-302.16 -47.89,-61.67 -114.06,-110.34 -197.86,-146.55 -46.6,-19.81 -128.54,-29.98 -245.71,-29.98l-189.04 0 0 1738.26c0,116 6.92,188.41 20.79,217.28 13.86,28.85 41.57,54.31 81.91,75.82 40.95,22.08 96.39,32.82 166.96,32.82l81.91 0 0 57.72 -1304.28 0 0 -57.72 82.56 0c71.83,0 129.8,-11.88 173.9,-35.09 31.5,-15.83 56.73,-42.43 74.98,-80.34 13.23,-26.6 20.17,-96.76 20.17,-210.49l0 -1738.26 -181.46 0c-167.62,0 -289.22,32.25 -365.46,96.19 -106.48,89.4 -173.27,216.71 -201.63,382.5l-71.83 0 0 -607.71 2249.38 0z"/>
   <path class="fil22" d="M9832.48 12647.43l0 560.81 -41.57 0c-53.38,-152.44 -133.66,-268.37 -240.44,-347.79 -106.79,-79.44 -223.72,-119.15 -350.48,-119.15 -121.45,0 -222.11,33.3 -302.8,100.29 -80.69,66.98 -137.73,160.46 -171.15,279.99 -33.42,119.95 -50.14,242.71 -50.14,368.66 0,152.85 17.94,286.44 54.62,401.56 36.66,115.14 95.77,199.38 177.27,253.52 81.51,54.16 178.11,81.04 290.15,81.04 39.14,0 79.08,-4.01 119.82,-12.43 41.17,-8.02 83.14,-20.06 125.92,-35.71l0 -329.75c0,-63.77 -4.47,-105.09 -13.03,-123.94 -8.55,-18.47 -26.89,-35.71 -54.2,-50.56 -27.29,-15.25 -60.31,-22.86 -99.03,-22.86l-41.55 0 0 -40.91 787.33 0 0 40.91c-59.89,4.01 -101.87,12.04 -125.5,24.47 -23.25,12.43 -41.59,32.89 -54.22,61.78 -7.34,14.85 -11,52.15 -11,111.11l0 329.75c-103.51,45.34 -211.11,79.44 -322.77,102.71 -111.66,22.86 -227.81,34.49 -348.03,34.49 -153.23,0 -280.78,-20.45 -382.24,-61.78 -101.48,-40.91 -191.14,-95.06 -268.57,-162.05 -77.43,-67 -138.15,-142.41 -181.75,-226.25 -55.85,-107.91 -83.56,-229.07 -83.56,-362.64 0,-239.9 85.58,-442.08 256.76,-607.36 171.55,-165.28 387.15,-247.9 646.75,-247.9 80.69,0 152.81,6.02 217.61,18.45 35.05,6.43 91.69,24.07 170.35,53.36 78.24,29.27 124.71,43.71 138.97,43.71 22.41,0 43.2,-8.02 62.35,-24.07 19.17,-16.04 36.68,-46.53 52.57,-91.45l41.57 0z"/>
   <path class="fil22" d="M10840.24 12745.95l0 649.86 33.37 0c106.77,0 184.02,-31.69 232.12,-95.08 47.68,-63.37 78.51,-156.86 91.58,-280.4l48.12 0 0 835.2 -48.12 0c-9.7,-91.07 -30.79,-165.68 -62.46,-223.45 -32.09,-58.17 -68.79,-97.07 -111.02,-117.13 -42.19,-20.06 -103.4,-30.09 -183.6,-30.09l0 448.49c0,87.86 3.83,141.2 11.82,160.86 7.6,19.66 22.37,35.69 43.9,48.14 21.53,12.43 56.14,18.85 103.83,18.85l100.46 0c156.58,0 282.37,-34.5 376.92,-103.09 94.55,-68.61 162.49,-173.31 203.44,-314.52l46 0 -75.54 506.66 -1448.98 0 0 -40.91 55.3 0c48.53,0 87.79,-8.44 117.33,-24.88 21.53,-11.24 37.98,-30.09 49.37,-56.96 8.86,-18.85 13.51,-68.59 13.51,-149.22l0 -1051.84c0,-72.6 -2.11,-117.13 -6.32,-133.97 -8.04,-27.68 -23.23,-48.95 -45.6,-63.79 -31.23,-22.06 -73.86,-33.3 -128.3,-33.3l-55.3 0 0 -40.91 1402.96 0 0 471.75 -48.11 0c-23.63,-115.52 -57.4,-198.17 -100.46,-248.31 -43.05,-50.16 -103.83,-87.06 -182.76,-110.73 -46.02,-14.04 -132.11,-21.25 -258.74,-21.25l-174.74 0z"/>
   <path class="fil22" d="M12580.49 12654.48l821.91 988.45 0 -685.17c0,-96.69 -14.28,-161.67 -43.22,-195.77 -39.45,-46.13 -105.73,-68.19 -198.44,-66.59l0 -40.91 551.27 0 0 40.91c-70.49,8.84 -117.88,20.06 -142.23,33.7 -23.91,14.04 -42.78,36.52 -56.64,67.8 -13.42,31.28 -20.14,85.04 -20.14,160.86l0 1328.61 -41.53 0 -1126.47 -1330.22 0 1017.33c0,92.26 21.82,154.84 65.86,187.33 44.06,32.49 94.8,48.54 151.46,48.54l39.43 0 0 40.91 -594.07 0 0 -40.91c92.31,-0.81 156.09,-18.85 192.57,-54.57 36.08,-35.69 54.13,-95.86 54.13,-181.31l0 -1128.44 -34.83 -41.31c-35.22,-43.33 -66.28,-71.81 -93.56,-85.45 -26.84,-13.64 -65.86,-21.27 -116.62,-22.88l0 -40.91 591.12 0z"/>
  </g>
 </g>
</svg>
